<?xml version="1.0" ?>
<!-- Uploaded to: SVG Repo, www.svgrepo.com, Generator: SVG Repo Mixer Tools -->
<svg width="800px" height="800px" viewBox="0 0 512 512" id="Layer_1" version="1.1" xml:space="preserve" xmlns="http://www.w3.org/2000/svg" xmlns:xlink="http://www.w3.org/1999/xlink">
<style type="text/css">
	.st0{fill:#6040EC;}
	.st1{fill:#0BDC49;}
</style>
<g>
<g>
<path class="st1" d="M222.1,405.1l-111.4-86.5c-5.2-4.1,9.5-23,14.7-19l111.4,86.5C242,390.2,224.3,406.8,222.1,405.1z"/>
</g>
<g>
<path class="st1" d="M375.4,195.9l-99.8-77.6c-5.2-4.1,9.5-23,14.7-19l99.8,77.6C395.3,181,377.5,197.6,375.4,195.9z"/>
</g>
<g>
<path class="st0" d="M100.1,470c-4.8,0-9.5-1.6-13.4-4.5c-6.7-5.1-9.9-13.7-8.3-21.9l27.2-137.2c0.3-1.5,1-3,1.9-4.2L274.7,86.8    l15.6-20.3c21.3-27.5,60.9-32.6,88.4-11.4l30.9,23.8c27.5,21.2,32.6,60.8,11.4,88.3L239.5,404.1c-1,1.3-2.2,2.3-3.6,2.9    c-15.7,7.5-115,54.4-130.7,61.8C103.6,469.5,101.8,470,100.1,470C100.1,470,100.1,470,100.1,470z M127.7,316.3l-25,127.8    c18.4-8.7,117.8-56.5,117.8-56.5L402,152.5c13.1-17,9.9-41.5-7.1-54.7L364,74.1c-17-13.1-41.6-9.9-54.8,7.1l-15.6,20.3    L127.7,316.3z"/>
</g>
</g>
</svg>